<?xml version="1.0" encoding="UTF-8"?>
<svg xmlns="http://www.w3.org/2000/svg" viewBox="0 0 680 610" role="img">
<title>Game client components</title>
<defs>
  <marker id="arrow" viewBox="0 0 10 10" refX="8" refY="5" markerWidth="6" markerHeight="6" orient="auto-start-reverse"><path d="M2 1L8 5L2 9" fill="none" stroke="#666" stroke-width="1.5" stroke-linecap="round" stroke-linejoin="round"/></marker>
</defs>
<rect width="680" height="610" fill="white"/>
<rect x="15" y="70" width="650" height="520" rx="14" fill="none" stroke="#888" stroke-width="0.5" stroke-dasharray="6 4" opacity="0.5"/>
<text x="35" y="92" font-family="sans-serif" font-size="11" fill="#555">Game client process</text>
<g><rect x="250" y="110" width="200" height="50" rx="8" fill="#fad8d2" stroke="#a85948" stroke-width="0.5"/><text x="350" y="128" text-anchor="middle" dominant-baseline="central" font-family="sans-serif" font-size="14" font-weight="600" fill="#5a2418">Frame loop</text><text x="350" y="146" text-anchor="middle" dominant-baseline="central" font-family="sans-serif" font-size="11" fill="#5a2418">Variable + accumulator</text></g>
<g><rect x="30" y="190" width="180" height="60" rx="8" fill="#e9d5f2" stroke="#8b5fa6" stroke-width="0.5"/><text x="120" y="213" text-anchor="middle" dominant-baseline="central" font-family="sans-serif" font-size="14" font-weight="600" fill="#3b1d4f">Input</text><text x="120" y="233" text-anchor="middle" dominant-baseline="central" font-family="sans-serif" font-size="11" fill="#3b1d4f">Raw input timestamped</text></g>
<g><rect x="30" y="270" width="180" height="60" rx="8" fill="#e9d5f2" stroke="#8b5fa6" stroke-width="0.5"/><text x="120" y="293" text-anchor="middle" dominant-baseline="central" font-family="sans-serif" font-size="14" font-weight="600" fill="#3b1d4f">Cmd encoder</text><text x="120" y="313" text-anchor="middle" dominant-baseline="central" font-family="sans-serif" font-size="11" fill="#3b1d4f">Packs commands</text></g>
<g><rect x="30" y="350" width="180" height="60" rx="8" fill="#e9d5f2" stroke="#8b5fa6" stroke-width="0.5"/><text x="120" y="373" text-anchor="middle" dominant-baseline="central" font-family="sans-serif" font-size="14" font-weight="600" fill="#3b1d4f">Net &amp; session</text><text x="120" y="393" text-anchor="middle" dominant-baseline="central" font-family="sans-serif" font-size="11" fill="#3b1d4f">QUIC + encryption</text></g>
<g><rect x="30" y="430" width="180" height="60" rx="8" fill="#e9d5f2" stroke="#8b5fa6" stroke-width="0.5"/><text x="120" y="453" text-anchor="middle" dominant-baseline="central" font-family="sans-serif" font-size="14" font-weight="600" fill="#3b1d4f">Snapshot decoder</text><text x="120" y="473" text-anchor="middle" dominant-baseline="central" font-family="sans-serif" font-size="11" fill="#3b1d4f">Decodes deltas</text></g>
<g><rect x="240" y="190" width="180" height="60" rx="8" fill="#d4ebe5" stroke="#3a7a6a" stroke-width="0.5"/><text x="330" y="213" text-anchor="middle" dominant-baseline="central" font-family="sans-serif" font-size="14" font-weight="600" fill="#1d3b35">Interp buffer</text><text x="330" y="233" text-anchor="middle" dominant-baseline="central" font-family="sans-serif" font-size="11" fill="#1d3b35">Snapshots for remotes</text></g>
<g><rect x="240" y="270" width="180" height="60" rx="8" fill="#d4ebe5" stroke="#3a7a6a" stroke-width="0.5"/><text x="330" y="293" text-anchor="middle" dominant-baseline="central" font-family="sans-serif" font-size="14" font-weight="600" fill="#1d3b35">World ECS</text><text x="330" y="313" text-anchor="middle" dominant-baseline="central" font-family="sans-serif" font-size="11" fill="#1d3b35">Local state</text></g>
<g><rect x="240" y="350" width="180" height="60" rx="8" fill="#d4ebe5" stroke="#3a7a6a" stroke-width="0.5"/><text x="330" y="373" text-anchor="middle" dominant-baseline="central" font-family="sans-serif" font-size="14" font-weight="600" fill="#1d3b35">Simulation systems</text><text x="330" y="393" text-anchor="middle" dominant-baseline="central" font-family="sans-serif" font-size="11" fill="#1d3b35">Predicts local player</text></g>
<g><rect x="240" y="430" width="180" height="60" rx="8" fill="#d4ebe5" stroke="#3a7a6a" stroke-width="0.5"/><text x="330" y="453" text-anchor="middle" dominant-baseline="central" font-family="sans-serif" font-size="14" font-weight="600" fill="#1d3b35">Reconcile buffer</text><text x="330" y="473" text-anchor="middle" dominant-baseline="central" font-family="sans-serif" font-size="11" fill="#1d3b35">Predicted ticks</text></g>
<g><rect x="240" y="510" width="180" height="60" rx="8" fill="#fad8d2" stroke="#a85948" stroke-width="0.5"/><text x="330" y="533" text-anchor="middle" dominant-baseline="central" font-family="sans-serif" font-size="14" font-weight="600" fill="#5a2418">Game module</text><text x="330" y="553" text-anchor="middle" dominant-baseline="central" font-family="sans-serif" font-size="11" fill="#5a2418">Game logic</text></g>
<g><rect x="450" y="190" width="180" height="60" rx="8" fill="#fad8d2" stroke="#a85948" stroke-width="0.5"/><text x="540" y="213" text-anchor="middle" dominant-baseline="central" font-family="sans-serif" font-size="14" font-weight="600" fill="#5a2418">Renderer</text><text x="540" y="233" text-anchor="middle" dominant-baseline="central" font-family="sans-serif" font-size="11" fill="#5a2418">GPU + frame loop</text></g>
<g><rect x="450" y="270" width="180" height="60" rx="8" fill="#fad8d2" stroke="#a85948" stroke-width="0.5"/><text x="540" y="293" text-anchor="middle" dominant-baseline="central" font-family="sans-serif" font-size="14" font-weight="600" fill="#5a2418">Audio engine</text><text x="540" y="313" text-anchor="middle" dominant-baseline="central" font-family="sans-serif" font-size="11" fill="#5a2418">3D positional</text></g>
<line x1="210" y1="225" x2="240" y2="290" stroke="#666" stroke-width="1" marker-end="url(#arrow)"/>
<line x1="120" y1="250" x2="120" y2="270" stroke="#666" stroke-width="1" marker-end="url(#arrow)"/>
<line x1="120" y1="330" x2="120" y2="350" stroke="#666" stroke-width="1" marker-end="url(#arrow)"/>
<line x1="120" y1="410" x2="120" y2="430" stroke="#666" stroke-width="1" marker-end="url(#arrow)"/>
<line x1="210" y1="460" x2="240" y2="460" stroke="#666" stroke-width="1" marker-end="url(#arrow)"/>
<path d="M 210 450 L 225 450 L 225 220 L 240 220" stroke="#666" stroke-width="1" fill="none" marker-end="url(#arrow)"/>
<line x1="310" y1="330" x2="310" y2="350" stroke="#666" stroke-width="1" marker-end="url(#arrow)"/>
<line x1="350" y1="350" x2="350" y2="330" stroke="#666" stroke-width="1" marker-end="url(#arrow)"/>
<line x1="310" y1="410" x2="310" y2="430" stroke="#666" stroke-width="1" marker-end="url(#arrow)"/>
<line x1="350" y1="430" x2="350" y2="410" stroke="#666" stroke-width="1" marker-end="url(#arrow)"/>
<text x="355" y="420" text-anchor="start" font-family="sans-serif" font-size="11" fill="#555">rollback</text>
<path d="M 420 540 L 435 540 L 435 380 L 420 380" stroke="#666" stroke-width="1" fill="none" marker-end="url(#arrow)"/>
<line x1="330" y1="250" x2="330" y2="270" stroke="#666" stroke-width="1" marker-end="url(#arrow)"/>
<line x1="420" y1="290" x2="450" y2="220" stroke="#666" stroke-width="1" marker-end="url(#arrow)"/>
<line x1="420" y1="300" x2="450" y2="300" stroke="#666" stroke-width="1" marker-end="url(#arrow)"/>
</svg>
