{
  "asset": {"version": "2.0", "generator": "Blackflower bootstrap fixture"},
  "scene": 0,
  "scenes": [
    {"name": "Map", "nodes": []},
    {"name": "Player", "nodes": [0]}
  ],
  "nodes": [
    {"name": "PlayerRoot", "mesh": 0}
  ],
  "meshes": [
    {
      "name": "PlayerMesh",
      "primitives": [
        {"attributes": {"POSITION": 0}, "indices": 1, "mode": 4}
      ]
    }
  ],
  "buffers": [
    {
      "byteLength": 42,
      "uri": "data:application/octet-stream;base64,"
    }
  ],
  "bufferViews": [
    {"buffer": 0, "byteOffset": 0, "byteLength": 36, "target": 34962},
    {"buffer": 0, "byteOffset": 36, "byteLength": 6, "target": 34963}
  ],
  "accessors": [
    {
      "bufferView": 0,
      "byteOffset": 0,
      "componentType": 5126,
      "count": 3,
      "type": "VEC3",
      "min": [0.0, 0.0, 0.0],
      "max": [1.0, 1.0, 0.0]
    },
    {
      "bufferView": 1,
      "byteOffset": 0,
      "componentType": 5123,
      "count": 3,
      "type": "SCALAR"
    }
  ]
}
